<?xml version="1.0" standalone="no"?><!DOCTYPE svg PUBLIC "-//W3C//DTD SVG 1.1//EN" "http://www.w3.org/Graphics/SVG/1.1/DTD/svg11.dtd"><svg t="1621930853679" class="icon" viewBox="0 0 1066 1024" version="1.1" xmlns="http://www.w3.org/2000/svg" p-id="6190" width="33.3125" height="32" xmlns:xlink="http://www.w3.org/1999/xlink"><defs><style type="text/css"></style></defs><path d="M583.68 191.872l325.802667 325.845333a51.2 51.2 0 0 1-72.405334 72.405334L563.2 316.16l0.042667 630.485333a51.2 51.2 0 1 1-102.4 0V314.709333l-275.370667 275.413334a51.2 51.2 0 0 1-72.405333-72.405334l325.802666-325.845333a102.4 102.4 0 0 1 144.810667 0zM877.653333 17.066667a51.2 51.2 0 0 1 0 102.4H160.853333a51.2 51.2 0 1 1 0-102.4h716.8z" p-id="6191" fill="#ffffff"></path></svg>